<?xml version="1.0" encoding="UTF-8" standalone="no"?>
<!-- Created with Inkscape (http://www.inkscape.org/) -->

<svg
   xmlns:dc="http://purl.org/dc/elements/1.1/"
   xmlns:cc="http://creativecommons.org/ns#"
   xmlns:rdf="http://www.w3.org/1999/02/22-rdf-syntax-ns#"
   xmlns:svg="http://www.w3.org/2000/svg"
   xmlns="http://www.w3.org/2000/svg"
   xmlns:sodipodi="http://sodipodi.sourceforge.net/DTD/sodipodi-0.dtd"
   xmlns:inkscape="http://www.inkscape.org/namespaces/inkscape"
   width="158.34933mm"
   height="180.9588mm"
   viewBox="0 0 158.34933 180.9588"
   version="1.1"
   id="svg881"
   inkscape:version="0.92.3 (2405546, 2018-03-11)"
   sodipodi:docname="startStudy_icon.svg">
  <defs
     id="defs875" />
  <sodipodi:namedview
     id="base"
     pagecolor="#ffffff"
     bordercolor="#666666"
     borderopacity="1.0"
     inkscape:pageopacity="0.0"
     inkscape:pageshadow="2"
     inkscape:zoom="0.49497475"
     inkscape:cx="-589.72387"
     inkscape:cy="178.79963"
     inkscape:document-units="mm"
     inkscape:current-layer="g905"
     showgrid="false"
     inkscape:window-width="1920"
     inkscape:window-height="1003"
     inkscape:window-x="-9"
     inkscape:window-y="-9"
     inkscape:window-maximized="1"
     fit-margin-top="0"
     fit-margin-left="0"
     fit-margin-right="0"
     fit-margin-bottom="0" />
  <metadata
     id="metadata878">
    <rdf:RDF>
      <cc:Work
         rdf:about="">
        <dc:format>image/svg+xml</dc:format>
        <dc:type
           rdf:resource="http://purl.org/dc/dcmitype/StillImage" />
        <dc:title></dc:title>
      </cc:Work>
    </rdf:RDF>
  </metadata>
  <g
     inkscape:label="Layer 1"
     inkscape:groupmode="layer"
     id="layer1"
     transform="translate(-19.839221,-106.52068)">
    <g
       id="g905"
       transform="matrix(2.5446926,0,0,2.5446926,-202.61044,34.653817)"
       inkscape:export-xdpi="96"
       inkscape:export-ydpi="96">
      <path
         style="fill:#333333;stroke:#333333;stroke-width:0.17604721px;stroke-linecap:butt;stroke-linejoin:miter;stroke-opacity:1"
         d="m 102.56436,99.139835 c -3.307854,-0.01901 -0.41534,1.108685 -2.13772,-8.047874 C 96.938459,72.547988 89.672147,74.63483 88.229077,65.94236 83.614491,38.145955 102.13125,30.216963 113.00143,28.595202 c 9.97778,-1.488619 25.60471,3.367857 29.55079,12.700547 2.24154,5.301372 3.07612,8.379076 3.77243,16.850235 0.69631,8.471159 -0.73521,-0.10503 3.16299,13.852999 0.78833,2.82272 -5.38103,1.788219 -8.42511,1.508975 -1.52054,2.90073 -0.60406,2.981246 -2.39078,10.885598 -1.78672,7.904352 -7.2023,2.212273 -14.14581,6.233967 l -0.0814,8.63806 z"
         id="path2206"
         inkscape:connector-curvature="0"
         sodipodi:nodetypes="ssssszsczccs" />
      <g
         id="g844"
         transform="matrix(1.6931755,0,0,1.6931755,-73.870208,-34.162111)"
         style="stroke:none">
        <path
           sodipodi:nodetypes="sssssssssssssssssssssssszzsssssss"
           inkscape:connector-curvature="0"
           id="path2300"
           d="m 115.8792,46.197434 c 0.95219,-0.05237 1.55646,-1.521629 2.50087,-1.389358 0.77835,0.109013 1.55824,0.888894 1.66725,1.667245 0.13227,0.944411 -1.33473,1.548802 -1.38937,2.500865 -0.0226,0.393277 0.15799,0.829728 0.45197,1.091929 0.71169,0.634748 2.17655,0.02457 2.75083,0.785892 0.4733,0.627457 0.47329,1.730382 0,2.357849 -0.57427,0.761341 -2.03911,0.151268 -2.75082,0.78601 -0.29387,0.262092 -0.47441,0.698341 -0.45187,1.091464 0.0546,0.952093 1.52158,1.556573 1.38928,2.501007 -0.10903,0.778351 -0.8889,1.558256 -1.66726,1.667246 -0.94441,0.132241 -1.54997,-1.316209 -2.50077,-1.389493 -0.40649,-0.03133 -0.87027,0.124302 -1.14755,0.423191 -0.64858,0.699123 -0.0247,2.176547 -0.78603,2.750812 -0.62747,0.473287 -1.73039,0.473304 -2.35785,0 -0.76132,-0.574279 -0.14938,-2.040694 -0.78587,-2.750821 -0.24899,-0.277801 -0.66379,-0.445222 -1.03618,-0.422936 -0.95188,0.05697 -1.5564,1.521519 -2.50076,1.389247 -0.77836,-0.10902 -1.55825,-0.888903 -1.66726,-1.66726 -0.13227,-0.944413 1.33499,-1.548781 1.38939,-2.500859 0.0225,-0.393233 -0.15846,-0.82946 -0.45247,-1.091561 -0.71185,-0.634596 -2.17656,-0.0247 -2.75083,-0.786053 -0.47328,-0.62747 -0.47331,-1.730396 0,-2.357848 0.57428,-0.761314 2.24786,-0.337438 2.75083,-0.785837 0.50297,-0.448399 0.49103,-0.419312 0.45255,-1.092041 -0.0385,-0.672729 -1.51686,-1.640347 -1.38946,-2.500802 0.1274,-0.860455 0.91439,-1.536696 1.69348,-1.641018 0.93341,-0.124985 1.53669,1.279028 2.47468,1.363018 0.50063,0.04483 1.082,-0.117655 1.42904,-0.481251 0.65843,-0.689834 0.0245,-2.176545 0.78582,-2.750829 0.52288,-0.394425 1.44199,-0.394409 1.96488,0 0.76134,0.574268 0.15294,2.037626 0.78601,2.75082 0.27535,0.310203 0.73331,0.50415 1.14747,0.481372 z"
           style="fill:#ffffff;stroke:none;stroke-width:0.1964874;stroke-linecap:butt;stroke-linejoin:miter;stroke-miterlimit:4;stroke-dasharray:none;stroke-opacity:1" />
        <circle
           r="3.3791738"
           cy="52.003597"
           cx="112.8223"
           id="path2302"
           style="opacity:1;fill:#333333;fill-opacity:1;stroke:none;stroke-width:0.78594953;stroke-miterlimit:4;stroke-dasharray:none;stroke-opacity:1" />
      </g>
    </g>
  </g>
</svg>
