<?xml version="1.0" encoding="UTF-8" standalone="no"?>
<!-- Created with Inkscape (http://www.inkscape.org/) -->

<svg
   xmlns:dc="http://purl.org/dc/elements/1.1/"
   xmlns:cc="http://creativecommons.org/ns#"
   xmlns:rdf="http://www.w3.org/1999/02/22-rdf-syntax-ns#"
   xmlns:svg="http://www.w3.org/2000/svg"
   xmlns="http://www.w3.org/2000/svg"
   xmlns:xlink="http://www.w3.org/1999/xlink"
   xmlns:sodipodi="http://sodipodi.sourceforge.net/DTD/sodipodi-0.dtd"
   xmlns:inkscape="http://www.inkscape.org/namespaces/inkscape"
   width="210mm"
   height="297mm"
   viewBox="0 0 210 297"
   version="1.1"
   id="svg8"
   inkscape:version="0.92.3 (2405546, 2018-03-11)"
   sodipodi:docname="level_icons.svg">
  <defs
     id="defs2">
    <ellipse
       style="opacity:1;fill:#0044aa;fill-opacity:1;stroke:none;stroke-width:0.39774999;stroke-miterlimit:4;stroke-dasharray:none;stroke-opacity:1"
       id="path815-9-6-7"
       cx="-95.657616"
       cy="-217.99852"
       rx="19.777945"
       ry="19.983965"
       transform="rotate(-176.26406)" />
    <ellipse
       style="opacity:1;fill:#0044aa;fill-opacity:1;stroke:none;stroke-width:0.39774999;stroke-miterlimit:4;stroke-dasharray:none;stroke-opacity:1"
       id="path815-9-6-7-6"
       cx="-95.657616"
       cy="-217.99852"
       rx="19.777945"
       ry="19.983965"
       transform="rotate(-176.26406)" />
    <ellipse
       style="opacity:1;fill:#0044aa;fill-opacity:1;stroke:none;stroke-width:0.39774999;stroke-miterlimit:4;stroke-dasharray:none;stroke-opacity:1"
       id="path815-9-6-7-6-2"
       cx="-95.657616"
       cy="-217.99852"
       rx="19.777945"
       ry="19.983965"
       transform="rotate(-176.26406)" />
    <ellipse
       style="opacity:1;fill:#0044aa;fill-opacity:1;stroke:none;stroke-width:0.39774999;stroke-miterlimit:4;stroke-dasharray:none;stroke-opacity:1"
       id="path815-9-6-7-6-2-8"
       cx="-95.657616"
       cy="-217.99852"
       rx="19.777945"
       ry="19.983965"
       transform="rotate(-176.26406)" />
    <ellipse
       style="opacity:1;fill:#0044aa;fill-opacity:1;stroke:none;stroke-width:0.39774999;stroke-miterlimit:4;stroke-dasharray:none;stroke-opacity:1"
       id="path815-9-6-7-6-2-0"
       cx="-95.657616"
       cy="-217.99852"
       rx="19.777945"
       ry="19.983965"
       transform="rotate(-176.26406)" />
    <ellipse
       style="opacity:1;fill:#0044aa;fill-opacity:1;stroke:none;stroke-width:0.39774999;stroke-miterlimit:4;stroke-dasharray:none;stroke-opacity:1"
       id="path815-9-6-7-6-2-0-6"
       cx="-95.657616"
       cy="-217.99852"
       rx="19.777945"
       ry="19.983965"
       transform="rotate(-176.26406)" />
    <ellipse
       style="opacity:1;fill:#0044aa;fill-opacity:1;stroke:none;stroke-width:0.39774999;stroke-miterlimit:4;stroke-dasharray:none;stroke-opacity:1"
       id="path815-9-6-7-6-2-0-3"
       cx="-95.657616"
       cy="-217.99852"
       rx="19.777945"
       ry="19.983965"
       transform="rotate(-176.26406)" />
    <ellipse
       style="opacity:1;fill:#0044aa;fill-opacity:1;stroke:none;stroke-width:0.39774999;stroke-miterlimit:4;stroke-dasharray:none;stroke-opacity:1"
       id="path815-9-6-7-6-2-0-6-1"
       cx="-95.657616"
       cy="-217.99852"
       rx="19.777945"
       ry="19.983965"
       transform="rotate(-176.26406)" />
    <ellipse
       style="opacity:1;fill:#0044aa;fill-opacity:1;stroke:none;stroke-width:0.39774999;stroke-miterlimit:4;stroke-dasharray:none;stroke-opacity:1"
       id="path815-9-6-7-6-2-0-6-6"
       cx="-95.657616"
       cy="-217.99852"
       rx="19.777945"
       ry="19.983965"
       transform="rotate(-176.26406)" />
  </defs>
  <sodipodi:namedview
     id="base"
     pagecolor="#ffffff"
     bordercolor="#666666"
     borderopacity="1.0"
     inkscape:pageopacity="0.0"
     inkscape:pageshadow="2"
     inkscape:zoom="0.704407"
     inkscape:cx="296.76001"
     inkscape:cy="701.89576"
     inkscape:document-units="mm"
     inkscape:current-layer="layer1"
     showgrid="false"
     inkscape:snap-text-baseline="true"
     inkscape:window-width="1920"
     inkscape:window-height="1003"
     inkscape:window-x="-9"
     inkscape:window-y="-9"
     inkscape:window-maximized="1" />
  <metadata
     id="metadata5">
    <rdf:RDF>
      <cc:Work
         rdf:about="">
        <dc:format>image/svg+xml</dc:format>
        <dc:type
           rdf:resource="http://purl.org/dc/dcmitype/StillImage" />
        <dc:title></dc:title>
      </cc:Work>
    </rdf:RDF>
  </metadata>
  <g
     inkscape:label="Layer 1"
     inkscape:groupmode="layer"
     id="layer1">
    <ellipse
       style="opacity:0;fill:#0044aa;fill-opacity:1;stroke:none;stroke-width:0.39774999;stroke-miterlimit:4;stroke-dasharray:none;stroke-opacity:1"
       id="path815-9-6"
       cx="-95.657616"
       cy="-217.99852"
       rx="19.777945"
       ry="19.983965"
       transform="rotate(-176.26406)" />
    <g
       id="g1910"
       transform="translate(-76.065134,120.05002)">
      <rect
         transform="rotate(-0.18754074)"
         ry="4.9327207"
         rx="4.8147783"
         y="12.48667"
         x="83.019196"
         height="54.441967"
         width="78.254593"
         id="rect817-8-9"
         style="opacity:1;fill:#f9f9f9;stroke:#808080;stroke-width:0.51599997;stroke-miterlimit:4;stroke-dasharray:none;stroke-opacity:1" />
      <path
         inkscape:connector-curvature="0"
         id="rect817-8-9-1"
         d="m 154.93268,13.84015 -65.483809,0.209227 c -2.545304,0.0081 -4.587554,2.064383 -4.57902,4.610578 l 0.139094,41.533797 c 0.0085,2.546196 2.064691,4.589495 4.609996,4.581359 l 65.483809,-0.209226 c 2.5453,-0.0081 4.58755,-2.064386 4.57902,-4.61058 l -0.13909,-41.533799 c -0.009,-2.546193 -2.0647,-4.589492 -4.61,-4.581356 z m -0.93276,1.083535 c 2.47259,-0.0078 4.46963,1.948905 4.47792,4.386744 l 0.13558,39.765891 c 0.008,2.437836 -1.97552,4.407006 -4.4481,4.414794 l -63.613626,0.200463 c -2.472585,0.0078 -4.469621,-1.948908 -4.477913,-4.386745 l -0.13559,-39.765891 c -0.0083,-2.437836 1.975521,-4.407009 4.44811,-4.414798 z"
         style="opacity:1;fill:#0044aa;stroke:none;stroke-width:0.48654899;stroke-miterlimit:4;stroke-dasharray:none;stroke-opacity:1" />
      <text
         id="text1170"
         y="46.658947"
         x="90.801773"
         style="font-style:normal;font-variant:normal;font-weight:500;font-stretch:normal;font-size:25.39999962px;line-height:1.25;font-family:'Always In My Heart';-inkscape-font-specification:'Always In My Heart, Medium';font-variant-ligatures:normal;font-variant-caps:normal;font-variant-numeric:normal;font-feature-settings:normal;text-align:start;letter-spacing:0px;word-spacing:0px;writing-mode:lr-tb;text-anchor:start;fill:#0044aa;fill-opacity:1;stroke:none;stroke-width:0.26458332"
         xml:space="preserve"><tspan
           style="font-style:normal;font-variant:normal;font-weight:500;font-stretch:normal;font-size:25.39999962px;font-family:'Always In My Heart';-inkscape-font-specification:'Always In My Heart, Medium';font-variant-ligatures:normal;font-variant-caps:normal;font-variant-numeric:normal;font-feature-settings:normal;text-align:start;writing-mode:lr-tb;text-anchor:start;fill:#0044aa;stroke-width:0.26458332"
           y="46.658947"
           x="90.801773"
           id="tspan1168"
           sodipodi:role="line">Level 1</tspan></text>
    </g>
    <g
       id="g1895"
       transform="translate(-55.005858,-120.87827)"
       inkscape:export-xdpi="96"
       inkscape:export-ydpi="96">
      <ellipse
         ry="25.925144"
         rx="25.657875"
         cy="216.52399"
         cx="87.674339"
         id="path815-7-4-1"
         style="opacity:1;fill:#f9f9f9;fill-opacity:1;stroke:#808080;stroke-width:0.51599997;stroke-miterlimit:4;stroke-dasharray:none;stroke-opacity:1" />
      <text
         transform="rotate(14.26573,102.7165,260.90591)"
         y="-363.69064"
         x="-17.32498"
         id="text995-2-7-1"
         style="font-style:normal;font-variant:normal;font-weight:500;font-stretch:normal;font-size:10.58333302px;line-height:1.25;font-family:'Always In My Heart';-inkscape-font-specification:'Always In My Heart, Medium';font-variant-ligatures:normal;font-variant-caps:normal;font-variant-numeric:normal;font-feature-settings:normal;text-align:start;letter-spacing:0px;word-spacing:0px;writing-mode:lr-tb;text-anchor:start;fill:#0044aa;fill-opacity:1;stroke:none;stroke-width:0.26458332"
         xml:space="preserve"><textPath
           id="textPath1016-4-9-7"
           xlink:href="#path815-9-6-7-6-2"><tspan
   id="tspan993-8-0-1"
   style="font-style:normal;font-variant:normal;font-weight:500;font-stretch:normal;font-size:10.58333302px;font-family:'Always In My Heart';-inkscape-font-specification:'Always In My Heart, Medium';font-variant-ligatures:normal;font-variant-caps:normal;font-variant-numeric:normal;font-feature-settings:normal;text-align:start;writing-mode:lr-tb;text-anchor:start;fill:#0044aa;stroke-width:0.26458332">Level</tspan></textPath></text>
      <path
         inkscape:connector-curvature="0"
         id="path815-9-6-2-2-9-2"
         d="m 87.576929,196.5412 a 19.777944,19.983964 3.73594 0 0 -1.560113,0.0884 v 4.05195 a 15.76908,15.933341 3.73594 0 1 1.580273,-0.0904 15.76908,15.933341 3.73594 0 1 1.11569,0.0331 15.76908,15.933341 3.73594 0 1 14.697301,16.92713 15.76908,15.933341 3.73594 0 1 -16.773661,14.87197 15.76908,15.933341 3.73594 0 1 -14.697813,-16.92713 15.76908,15.933341 3.73594 0 1 0.38189,-2.50114 h -4.09846 a 19.777944,19.983964 3.73594 0 0 -0.28371,2.24017 19.777944,19.983964 3.73594 0 0 18.434033,21.23023 19.777944,19.983964 3.73594 0 0 21.037991,-18.65312 19.777944,19.983964 3.73594 0 0 -18.434021,-21.23024 19.777944,19.983964 3.73594 0 0 -1.3994,-0.0408 z"
         style="opacity:1;fill:#0044aa;fill-opacity:1;stroke:none;stroke-width:0.39774996;stroke-miterlimit:4;stroke-dasharray:none;stroke-opacity:1" />
      <text
         id="text1517"
         y="223.15338"
         x="73.822266"
         style="font-style:normal;font-variant:normal;font-weight:500;font-stretch:normal;font-size:25.39999962px;line-height:1.25;font-family:'Always In My Heart';-inkscape-font-specification:'Always In My Heart, Medium';font-variant-ligatures:normal;font-variant-caps:normal;font-variant-numeric:normal;font-feature-settings:normal;text-align:start;letter-spacing:0px;word-spacing:0px;writing-mode:lr-tb;text-anchor:start;fill:#0044aa;fill-opacity:1;stroke:none;stroke-width:0.26458332"
         xml:space="preserve"><tspan
           style="font-style:normal;font-variant:normal;font-weight:500;font-stretch:normal;font-size:25.39999962px;font-family:'Always In My Heart';-inkscape-font-specification:'Always In My Heart, Medium';font-variant-ligatures:normal;font-variant-caps:normal;font-variant-numeric:normal;font-feature-settings:normal;text-align:start;writing-mode:lr-tb;text-anchor:start;fill:#0044aa;stroke-width:0.26458332"
           y="223.15338"
           x="73.822266"
           id="tspan1515"
           sodipodi:role="line">4</tspan></text>
    </g>
    <g
       id="g1904"
       transform="translate(-55.908251,-120.34707)"
       inkscape:export-xdpi="96"
       inkscape:export-ydpi="96">
      <ellipse
         ry="25.925144"
         rx="25.657875"
         cy="215.99278"
         cx="153.51529"
         id="path815-7-4-1-8-7-4"
         style="opacity:1;fill:#f9f9f9;fill-opacity:1;stroke:#808080;stroke-width:0.51599997;stroke-miterlimit:4;stroke-dasharray:none;stroke-opacity:1" />
      <text
         transform="rotate(14.26573,137.75943,523.71142)"
         y="-363.69064"
         x="-17.32498"
         id="text995-2-7-1-7-5-8"
         style="font-style:normal;font-variant:normal;font-weight:500;font-stretch:normal;font-size:10.58333302px;line-height:1.25;font-family:'Always In My Heart';-inkscape-font-specification:'Always In My Heart, Medium';font-variant-ligatures:normal;font-variant-caps:normal;font-variant-numeric:normal;font-feature-settings:normal;text-align:start;letter-spacing:0px;word-spacing:0px;writing-mode:lr-tb;text-anchor:start;fill:#0044aa;fill-opacity:1;stroke:none;stroke-width:0.26458332"
         xml:space="preserve"><textPath
           id="textPath1016-4-9-7-9-4-7"
           xlink:href="#path815-9-6-7-6-2-0-6-6"><tspan
   id="tspan993-8-0-1-8-7-3"
   style="font-style:normal;font-variant:normal;font-weight:500;font-stretch:normal;font-size:10.58333302px;font-family:'Always In My Heart';-inkscape-font-specification:'Always In My Heart, Medium';font-variant-ligatures:normal;font-variant-caps:normal;font-variant-numeric:normal;font-feature-settings:normal;text-align:start;writing-mode:lr-tb;text-anchor:start;fill:#0044aa;stroke-width:0.26458332">Level</tspan></textPath></text>
      <path
         inkscape:connector-curvature="0"
         id="path815-9-6-2-2-9-2-32-0-8"
         d="m 153.41789,196.01 a 19.777944,19.983964 3.73594 0 0 -1.56012,0.0884 v 4.05195 a 15.76908,15.933341 3.73594 0 1 1.58028,-0.0904 15.76908,15.933341 3.73594 0 1 1.11569,0.0331 15.76908,15.933341 3.73594 0 1 14.69729,16.92713 15.76908,15.933341 3.73594 0 1 -16.77365,14.87198 15.76908,15.933341 3.73594 0 1 -14.69782,-16.92714 15.76908,15.933341 3.73594 0 1 0.38189,-2.50114 h -4.09846 a 19.777944,19.983964 3.73594 0 0 -0.28371,2.24017 19.777944,19.983964 3.73594 0 0 18.43404,21.23023 19.777944,19.983964 3.73594 0 0 21.03798,-18.65312 19.777944,19.983964 3.73594 0 0 -18.43402,-21.23024 19.777944,19.983964 3.73594 0 0 -1.39939,-0.0408 z"
         style="opacity:1;fill:#0044aa;fill-opacity:1;stroke:none;stroke-width:0.39774996;stroke-miterlimit:4;stroke-dasharray:none;stroke-opacity:1" />
      <text
         id="text1591"
         y="222.31046"
         x="138.95357"
         style="font-style:normal;font-variant:normal;font-weight:500;font-stretch:normal;font-size:25.39999962px;line-height:1.25;font-family:'Always In My Heart';-inkscape-font-specification:'Always In My Heart, Medium';font-variant-ligatures:normal;font-variant-caps:normal;font-variant-numeric:normal;font-feature-settings:normal;text-align:start;letter-spacing:0px;word-spacing:0px;writing-mode:lr-tb;text-anchor:start;fill:#0044aa;fill-opacity:1;stroke:none;stroke-width:0.26458332"
         xml:space="preserve"><tspan
           style="font-style:normal;font-variant:normal;font-weight:500;font-stretch:normal;font-size:25.39999962px;font-family:'Always In My Heart';-inkscape-font-specification:'Always In My Heart, Medium';font-variant-ligatures:normal;font-variant-caps:normal;font-variant-numeric:normal;font-feature-settings:normal;text-align:start;writing-mode:lr-tb;text-anchor:start;fill:#0044aa;stroke-width:0.26458332"
           y="222.31046"
           x="138.95357"
           id="tspan1589"
           sodipodi:role="line">5</tspan></text>
    </g>
    <g
       id="g1886"
       transform="translate(10.623899,-124.83078)"
       inkscape:export-xdpi="96"
       inkscape:export-ydpi="96">
      <ellipse
         ry="25.925144"
         rx="25.657875"
         cy="156.76457"
         cx="151.92171"
         id="path815-7-4-1-8-7"
         style="opacity:1;fill:#f9f9f9;fill-opacity:1;stroke:#808080;stroke-width:0.51599997;stroke-miterlimit:4;stroke-dasharray:none;stroke-opacity:1" />
      <text
         transform="rotate(14.26573,373.61212,487.73003)"
         y="-363.69064"
         x="-17.32498"
         id="text995-2-7-1-7-5"
         style="font-style:normal;font-variant:normal;font-weight:500;font-stretch:normal;font-size:10.58333302px;line-height:1.25;font-family:'Always In My Heart';-inkscape-font-specification:'Always In My Heart, Medium';font-variant-ligatures:normal;font-variant-caps:normal;font-variant-numeric:normal;font-feature-settings:normal;text-align:start;letter-spacing:0px;word-spacing:0px;writing-mode:lr-tb;text-anchor:start;fill:#0044aa;fill-opacity:1;stroke:none;stroke-width:0.26458332"
         xml:space="preserve"><textPath
           id="textPath1016-4-9-7-9-4"
           xlink:href="#path815-9-6-7-6-2-0-6"><tspan
   id="tspan993-8-0-1-8-7"
   style="font-style:normal;font-variant:normal;font-weight:500;font-stretch:normal;font-size:10.58333302px;font-family:'Always In My Heart';-inkscape-font-specification:'Always In My Heart, Medium';font-variant-ligatures:normal;font-variant-caps:normal;font-variant-numeric:normal;font-feature-settings:normal;text-align:start;writing-mode:lr-tb;text-anchor:start;fill:#0044aa;stroke-width:0.26458332">Level</tspan></textPath></text>
      <path
         inkscape:connector-curvature="0"
         id="path815-9-6-2-2-9-2-32-0"
         d="m 151.82431,136.78179 a 19.777944,19.983964 3.73594 0 0 -1.56012,0.0884 v 4.05195 a 15.76908,15.933341 3.73594 0 1 1.58028,-0.0904 15.76908,15.933341 3.73594 0 1 1.11569,0.0331 15.76908,15.933341 3.73594 0 1 14.69729,16.92713 15.76908,15.933341 3.73594 0 1 -16.77365,14.87197 15.76908,15.933341 3.73594 0 1 -14.69782,-16.92713 15.76908,15.933341 3.73594 0 1 0.38189,-2.50114 h -4.09846 a 19.777944,19.983964 3.73594 0 0 -0.28371,2.24017 19.777944,19.983964 3.73594 0 0 18.43404,21.23023 19.777944,19.983964 3.73594 0 0 21.03798,-18.65312 19.777944,19.983964 3.73594 0 0 -18.43402,-21.23024 19.777944,19.983964 3.73594 0 0 -1.39939,-0.0408 z"
         style="opacity:1;fill:#0044aa;fill-opacity:1;stroke:none;stroke-width:0.39774996;stroke-miterlimit:4;stroke-dasharray:none;stroke-opacity:1" />
      <text
         id="text1417"
         y="163.21887"
         x="137.60246"
         style="font-style:normal;font-variant:normal;font-weight:500;font-stretch:normal;font-size:25.39999962px;line-height:1.25;font-family:'Always In My Heart';-inkscape-font-specification:'Always In My Heart, Medium';font-variant-ligatures:normal;font-variant-caps:normal;font-variant-numeric:normal;font-feature-settings:normal;text-align:start;letter-spacing:0px;word-spacing:0px;writing-mode:lr-tb;text-anchor:start;fill:#0044aa;fill-opacity:1;stroke:none;stroke-width:0.26458332"
         xml:space="preserve"><tspan
           style="font-style:normal;font-variant:normal;font-weight:500;font-stretch:normal;font-size:25.39999962px;font-family:'Always In My Heart';-inkscape-font-specification:'Always In My Heart, Medium';font-variant-ligatures:normal;font-variant-caps:normal;font-variant-numeric:normal;font-feature-settings:normal;text-align:start;writing-mode:lr-tb;text-anchor:start;fill:#0044aa;stroke-width:0.26458332"
           y="163.21887"
           x="137.60246"
           id="tspan1415"
           sodipodi:role="line">3</tspan></text>
    </g>
    <g
       id="g1877"
       transform="translate(5.1791442,-125.89317)"
       inkscape:export-xdpi="96"
       inkscape:export-ydpi="96">
      <ellipse
         ry="25.925144"
         rx="25.657875"
         cy="157.82697"
         cx="92.427895"
         id="path815-7-4-1-8"
         style="opacity:1;fill:#f9f9f9;fill-opacity:1;stroke:#808080;stroke-width:0.51599997;stroke-miterlimit:4;stroke-dasharray:none;stroke-opacity:1" />
      <text
         transform="rotate(14.26573,339.62035,250.55051)"
         y="-363.69064"
         x="-17.32498"
         id="text995-2-7-1-7"
         style="font-style:normal;font-variant:normal;font-weight:500;font-stretch:normal;font-size:10.58333302px;line-height:1.25;font-family:'Always In My Heart';-inkscape-font-specification:'Always In My Heart, Medium';font-variant-ligatures:normal;font-variant-caps:normal;font-variant-numeric:normal;font-feature-settings:normal;text-align:start;letter-spacing:0px;word-spacing:0px;writing-mode:lr-tb;text-anchor:start;fill:#0044aa;fill-opacity:1;stroke:none;stroke-width:0.26458332"
         xml:space="preserve"><textPath
           id="textPath1016-4-9-7-9"
           xlink:href="#path815-9-6-7-6-2-0"><tspan
   id="tspan993-8-0-1-8"
   style="font-style:normal;font-variant:normal;font-weight:500;font-stretch:normal;font-size:10.58333302px;font-family:'Always In My Heart';-inkscape-font-specification:'Always In My Heart, Medium';font-variant-ligatures:normal;font-variant-caps:normal;font-variant-numeric:normal;font-feature-settings:normal;text-align:start;writing-mode:lr-tb;text-anchor:start;fill:#0044aa;stroke-width:0.26458332">Level</tspan></textPath></text>
      <path
         inkscape:connector-curvature="0"
         id="path815-9-6-2-2-9-2-32"
         d="m 92.330488,137.84418 a 19.777944,19.983964 3.73594 0 0 -1.560113,0.0884 v 4.05195 a 15.76908,15.933341 3.73594 0 1 1.580273,-0.0904 15.76908,15.933341 3.73594 0 1 1.11569,0.0331 15.76908,15.933341 3.73594 0 1 14.697292,16.92713 15.76908,15.933341 3.73594 0 1 -16.773652,14.87197 15.76908,15.933341 3.73594 0 1 -14.697813,-16.92713 15.76908,15.933341 3.73594 0 1 0.38189,-2.50114 h -4.09846 a 19.777944,19.983964 3.73594 0 0 -0.28371,2.24017 19.777944,19.983964 3.73594 0 0 18.434033,21.23023 19.777944,19.983964 3.73594 0 0 21.037982,-18.65312 19.777944,19.983964 3.73594 0 0 -18.434013,-21.23024 19.777944,19.983964 3.73594 0 0 -1.399399,-0.0408 z"
         style="opacity:1;fill:#0044aa;fill-opacity:1;stroke:none;stroke-width:0.39774996;stroke-miterlimit:4;stroke-dasharray:none;stroke-opacity:1" />
      <text
         id="text1109"
         y="164.10994"
         x="79.281578"
         style="font-style:normal;font-variant:normal;font-weight:500;font-stretch:normal;font-size:25.39999962px;line-height:1.25;font-family:'Always In My Heart';-inkscape-font-specification:'Always In My Heart, Medium';font-variant-ligatures:normal;font-variant-caps:normal;font-variant-numeric:normal;font-feature-settings:normal;text-align:start;letter-spacing:0px;word-spacing:0px;writing-mode:lr-tb;text-anchor:start;fill:#0044aa;fill-opacity:1;stroke:none;stroke-width:0.26458332"
         xml:space="preserve"><tspan
           style="font-style:normal;font-variant:normal;font-weight:500;font-stretch:normal;font-size:25.39999962px;font-family:'Always In My Heart';-inkscape-font-specification:'Always In My Heart, Medium';font-variant-ligatures:normal;font-variant-caps:normal;font-variant-numeric:normal;font-feature-settings:normal;text-align:start;writing-mode:lr-tb;text-anchor:start;fill:#0044aa;stroke-width:0.26458332"
           y="164.10994"
           x="79.281578"
           id="tspan1107"
           sodipodi:role="line">2</tspan></text>
    </g>
    <g
       id="g1868"
       transform="translate(-122.706,-67.461743)"
       inkscape:export-xdpi="96"
       inkscape:export-ydpi="96">
      <ellipse
         ry="25.925144"
         rx="25.657875"
         cy="99.395538"
         cx="155.37448"
         id="path815-7-4-1-8-7-3"
         style="opacity:1;fill:#f9f9f9;fill-opacity:1;stroke:#808080;stroke-width:0.51599997;stroke-miterlimit:4;stroke-dasharray:none;stroke-opacity:1" />
      <text
         transform="rotate(14.26573,604.55953,472.84125)"
         y="-363.69064"
         x="-17.32498"
         id="text995-2-7-1-7-5-2"
         style="font-style:normal;font-variant:normal;font-weight:500;font-stretch:normal;font-size:10.58333302px;line-height:1.25;font-family:'Always In My Heart';-inkscape-font-specification:'Always In My Heart, Medium';font-variant-ligatures:normal;font-variant-caps:normal;font-variant-numeric:normal;font-feature-settings:normal;text-align:start;letter-spacing:0px;word-spacing:0px;writing-mode:lr-tb;text-anchor:start;fill:#0044aa;fill-opacity:1;stroke:none;stroke-width:0.26458332"
         xml:space="preserve"><textPath
           id="textPath1016-4-9-7-9-4-4"
           xlink:href="#path815-9-6-7-6-2-0-6-1"><tspan
   id="tspan993-8-0-1-8-7-5"
   style="font-style:normal;font-variant:normal;font-weight:500;font-stretch:normal;font-size:10.58333302px;font-family:'Always In My Heart';-inkscape-font-specification:'Always In My Heart, Medium';font-variant-ligatures:normal;font-variant-caps:normal;font-variant-numeric:normal;font-feature-settings:normal;text-align:start;writing-mode:lr-tb;text-anchor:start;fill:#0044aa;stroke-width:0.26458332">Level</tspan></textPath></text>
      <path
         inkscape:connector-curvature="0"
         id="path815-9-6-2-2-9-2-32-0-1"
         d="m 155.27708,79.412754 a 19.777944,19.983964 3.73594 0 0 -1.56012,0.0884 v 4.05195 a 15.76908,15.933341 3.73594 0 1 1.58028,-0.0904 15.76908,15.933341 3.73594 0 1 1.11569,0.0331 15.76908,15.933341 3.73594 0 1 14.69729,16.927136 15.76908,15.933341 3.73594 0 1 -16.77365,14.87197 15.76908,15.933341 3.73594 0 1 -14.69782,-16.927136 15.76908,15.933341 3.73594 0 1 0.38189,-2.50114 h -4.09846 a 19.777944,19.983964 3.73594 0 0 -0.28371,2.24017 19.777944,19.983964 3.73594 0 0 18.43404,21.230236 19.777944,19.983964 3.73594 0 0 21.03798,-18.65312 19.777944,19.983964 3.73594 0 0 -18.43402,-21.230246 19.777944,19.983964 3.73594 0 0 -1.39939,-0.0408 z"
         style="opacity:1;fill:#0044aa;fill-opacity:1;stroke:none;stroke-width:0.39774996;stroke-miterlimit:4;stroke-dasharray:none;stroke-opacity:1" />
      <text
         id="text991"
         y="105.69615"
         x="144.65569"
         style="font-style:normal;font-variant:normal;font-weight:500;font-stretch:normal;font-size:25.39999962px;line-height:1.25;font-family:'Always In My Heart';-inkscape-font-specification:'Always In My Heart, Medium';font-variant-ligatures:normal;font-variant-caps:normal;font-variant-numeric:normal;font-feature-settings:normal;text-align:start;letter-spacing:0px;word-spacing:0px;writing-mode:lr-tb;text-anchor:start;fill:#0044aa;fill-opacity:1;stroke:#0044aa;stroke-width:0.26458332;stroke-opacity:1"
         xml:space="preserve"><tspan
           style="font-style:normal;font-variant:normal;font-weight:500;font-stretch:normal;font-size:25.39999962px;font-family:'Always In My Heart';-inkscape-font-specification:'Always In My Heart, Medium';font-variant-ligatures:normal;font-variant-caps:normal;font-variant-numeric:normal;font-feature-settings:normal;text-align:start;writing-mode:lr-tb;text-anchor:start;fill:#0044aa;fill-opacity:1;stroke:#0044aa;stroke-width:0.26458332;stroke-opacity:1"
           y="105.69615"
           x="144.65569"
           id="tspan989"
           sodipodi:role="line">1</tspan></text>
    </g>
    <g
       id="g1859"
       transform="translate(65.336957,-3.2186249)"
       inkscape:export-xdpi="96"
       inkscape:export-ydpi="96">
      <ellipse
         ry="25.925144"
         rx="25.657875"
         cy="98.864342"
         cx="97.208649"
         id="path815-7-4-1-8-1"
         style="opacity:1;fill:#f9f9f9;fill-opacity:1;stroke:#808080;stroke-width:0.51599997;stroke-miterlimit:4;stroke-dasharray:none;stroke-opacity:1" />
      <text
         transform="rotate(14.26573,577.59903,240.17096)"
         y="-363.69064"
         x="-17.32498"
         id="text995-2-7-1-7-8"
         style="font-style:normal;font-variant:normal;font-weight:500;font-stretch:normal;font-size:10.58333302px;line-height:1.25;font-family:'Always In My Heart';-inkscape-font-specification:'Always In My Heart, Medium';font-variant-ligatures:normal;font-variant-caps:normal;font-variant-numeric:normal;font-feature-settings:normal;text-align:start;letter-spacing:0px;word-spacing:0px;writing-mode:lr-tb;text-anchor:start;fill:#0044aa;fill-opacity:1;stroke:none;stroke-width:0.26458332"
         xml:space="preserve"><textPath
           id="textPath1016-4-9-7-9-0"
           xlink:href="#path815-9-6-7-6-2-0-3"><tspan
   id="tspan993-8-0-1-8-5"
   style="font-style:normal;font-variant:normal;font-weight:500;font-stretch:normal;font-size:10.58333302px;font-family:'Always In My Heart';-inkscape-font-specification:'Always In My Heart, Medium';font-variant-ligatures:normal;font-variant-caps:normal;font-variant-numeric:normal;font-feature-settings:normal;text-align:start;writing-mode:lr-tb;text-anchor:start;fill:#0044aa;stroke-width:0.26458332">Level</tspan></textPath></text>
      <path
         inkscape:connector-curvature="0"
         id="path815-9-6-2-2-9-2-32-5"
         d="m 97.111244,78.881556 a 19.777944,19.983964 3.73594 0 0 -1.56011,0.0884 v 4.05195 a 15.76908,15.933341 3.73594 0 1 1.58027,-0.0904 15.76908,15.933341 3.73594 0 1 1.11569,0.0331 15.76908,15.933341 3.73594 0 1 14.697286,16.92713 15.76908,15.933341 3.73594 0 1 -16.773646,14.871964 15.76908,15.933341 3.73594 0 1 -14.69781,-16.927124 15.76908,15.933341 3.73594 0 1 0.38189,-2.50114 h -4.09846 a 19.777944,19.983964 3.73594 0 0 -0.28371,2.24017 19.777944,19.983964 3.73594 0 0 18.43403,21.230234 19.777944,19.983964 3.73594 0 0 21.037976,-18.65313 19.777944,19.983964 3.73594 0 0 -18.434006,-21.230234 19.777944,19.983964 3.73594 0 0 -1.3994,-0.0408 z"
         style="opacity:1;fill:#0044aa;fill-opacity:1;stroke:none;stroke-width:0.39774996;stroke-miterlimit:4;stroke-dasharray:none;stroke-opacity:1" />
      <text
         id="text1844"
         y="104.85822"
         x="82.961037"
         style="font-style:normal;font-variant:normal;font-weight:500;font-stretch:normal;font-size:25.39999962px;line-height:1.25;font-family:'Always In My Heart';-inkscape-font-specification:'Always In My Heart, Medium';font-variant-ligatures:normal;font-variant-caps:normal;font-variant-numeric:normal;font-feature-settings:normal;text-align:start;letter-spacing:0px;word-spacing:0px;writing-mode:lr-tb;text-anchor:start;fill:#0044aa;fill-opacity:1;stroke:none;stroke-width:0.26458332"
         xml:space="preserve"><tspan
           style="font-style:normal;font-variant:normal;font-weight:500;font-stretch:normal;font-size:25.39999962px;font-family:'Always In My Heart';-inkscape-font-specification:'Always In My Heart, Medium';font-variant-ligatures:normal;font-variant-caps:normal;font-variant-numeric:normal;font-feature-settings:normal;text-align:start;writing-mode:lr-tb;text-anchor:start;fill:#0044aa;stroke-width:0.26458332"
           y="104.85822"
           x="82.961037"
           id="tspan1842"
           sodipodi:role="line">6</tspan></text>
    </g>
  </g>
</svg>
