<?xml version="1.0" encoding="UTF-8" standalone="no"?>
<!-- Created with Inkscape (http://www.inkscape.org/) -->

<svg
   xmlns:dc="http://purl.org/dc/elements/1.1/"
   xmlns:cc="http://creativecommons.org/ns#"
   xmlns:rdf="http://www.w3.org/1999/02/22-rdf-syntax-ns#"
   xmlns:svg="http://www.w3.org/2000/svg"
   xmlns="http://www.w3.org/2000/svg"
   xmlns:xlink="http://www.w3.org/1999/xlink"
   xmlns:sodipodi="http://sodipodi.sourceforge.net/DTD/sodipodi-0.dtd"
   xmlns:inkscape="http://www.inkscape.org/namespaces/inkscape"
   width="210mm"
   height="297mm"
   viewBox="0 0 210 297"
   version="1.1"
   id="svg1918"
   inkscape:version="0.92.3 (2405546, 2018-03-11)"
   sodipodi:docname="topic_icons.svg">
  <defs
     id="defs1912">
    <ellipse
       style="opacity:1;fill:#0044aa;fill-opacity:1;stroke:none;stroke-width:0.39774999;stroke-miterlimit:4;stroke-dasharray:none;stroke-opacity:1"
       id="path815-9-6-7-6-2"
       cx="-95.657616"
       cy="-217.99852"
       rx="19.777945"
       ry="19.983965"
       transform="rotate(-176.26406)" />
    <ellipse
       style="opacity:1;fill:#0044aa;fill-opacity:1;stroke:none;stroke-width:0.39774999;stroke-miterlimit:4;stroke-dasharray:none;stroke-opacity:1"
       id="path815-9-6-7-6-2-6"
       cx="-95.657616"
       cy="-217.99852"
       rx="19.777945"
       ry="19.983965"
       transform="rotate(-176.26406)" />
  </defs>
  <sodipodi:namedview
     id="base"
     pagecolor="#ffffff"
     bordercolor="#666666"
     borderopacity="1.0"
     inkscape:pageopacity="0.0"
     inkscape:pageshadow="2"
     inkscape:zoom="0.98994949"
     inkscape:cx="225.7587"
     inkscape:cy="906.3962"
     inkscape:document-units="mm"
     inkscape:current-layer="layer1"
     showgrid="false"
     inkscape:window-width="1920"
     inkscape:window-height="1003"
     inkscape:window-x="-9"
     inkscape:window-y="-9"
     inkscape:window-maximized="1" />
  <metadata
     id="metadata1915">
    <rdf:RDF>
      <cc:Work
         rdf:about="">
        <dc:format>image/svg+xml</dc:format>
        <dc:type
           rdf:resource="http://purl.org/dc/dcmitype/StillImage" />
        <dc:title></dc:title>
      </cc:Work>
    </rdf:RDF>
  </metadata>
  <g
     inkscape:label="Layer 1"
     inkscape:groupmode="layer"
     id="layer1">
    <rect
       style="opacity:0;fill:#008000;fill-opacity:1;stroke:none;stroke-width:0.51599997;stroke-miterlimit:4;stroke-dasharray:none;stroke-opacity:1"
       id="rect2513"
       width="80.982666"
       height="57.195675"
       x="12.561667"
       y="116.05853"
       rx="3.946419"
       ry="3.8909626" />
    <g
       id="g2769"
       transform="translate(-13.363476,-39.82316)"
       inkscape:export-xdpi="96"
       inkscape:export-ydpi="96">
      <ellipse
         ry="25.925144"
         rx="25.657875"
         cy="70.355438"
         cx="45.435818"
         id="path815-7-4-1"
         style="opacity:1;fill:#f9f9f9;fill-opacity:1;stroke:#808080;stroke-width:0.51599997;stroke-miterlimit:4;stroke-dasharray:none;stroke-opacity:1" />
      <path
         inkscape:connector-curvature="0"
         id="path815-9-6-2-2-9-2"
         d="m 54.331861,51.445097 -1.289844,3.890719 A 15.76908,15.933341 3.73594 0 1 61.172271,70.309577 15.76908,15.933341 3.73594 0 1 44.398617,85.182054 15.76908,15.933341 3.73594 0 1 29.700806,68.254923 15.76908,15.933341 3.73594 0 1 30.082695,65.753785 H 25.984239 A 19.777944,19.983964 3.73594 0 0 25.700534,67.993956 19.777944,19.983964 3.73594 0 0 44.134552,89.224186 19.777944,19.983964 3.73594 0 0 65.172543,70.571062 19.777944,19.983964 3.73594 0 0 54.331861,51.445097 Z"
         style="opacity:1;fill:#0044aa;fill-opacity:1;stroke:none;stroke-width:0.39774996;stroke-miterlimit:4;stroke-dasharray:none;stroke-opacity:1" />
      <text
         transform="rotate(14.26573,664.2703,15.45284)"
         y="-382.13171"
         x="9.0835876"
         id="text995-2-7-1"
         style="font-style:normal;font-variant:normal;font-weight:500;font-stretch:normal;font-size:10.58333302px;line-height:1.25;font-family:'Always In My Heart';-inkscape-font-specification:'Always In My Heart, Medium';font-variant-ligatures:normal;font-variant-caps:normal;font-variant-numeric:normal;font-feature-settings:normal;text-align:start;letter-spacing:0px;word-spacing:0px;writing-mode:lr-tb;text-anchor:start;fill:#0044aa;fill-opacity:1;stroke:none;stroke-width:0.26458332"
         xml:space="preserve"><textPath
           id="textPath1016-4-9-7"
           xlink:href="#path815-9-6-7-6-2"><tspan
   id="tspan993-8-0-1"
   style="font-style:normal;font-variant:normal;font-weight:500;font-stretch:normal;font-size:10.58333302px;font-family:'Always In My Heart';-inkscape-font-specification:'Always In My Heart, Medium';font-variant-ligatures:normal;font-variant-caps:normal;font-variant-numeric:normal;font-feature-settings:normal;text-align:start;writing-mode:lr-tb;text-anchor:start;fill:#0044aa;stroke-width:0.26458332">Animals</tspan></textPath></text>
      <ellipse
         transform="matrix(0.38589515,-0.92254264,0.84090665,0.5411802,0,0)"
         ry="2.7035432"
         rx="1.5857353"
         cy="59.836987"
         cx="-42.715778"
         id="path2532"
         style="opacity:1;fill:#0044aa;fill-opacity:1;stroke:none;stroke-width:0.27357936;stroke-miterlimit:4;stroke-dasharray:none;stroke-opacity:1" />
      <ellipse
         transform="matrix(0.93739711,-0.34826235,0.36637803,0.93046609,0,0)"
         ry="2.8388073"
         rx="1.8179104"
         cy="75.590446"
         cx="8.6696043"
         id="path2532-5"
         style="opacity:1;fill:#0044aa;fill-opacity:1;stroke:none;stroke-width:0.30016187;stroke-miterlimit:4;stroke-dasharray:none;stroke-opacity:1" />
      <ellipse
         transform="matrix(0.93288929,-0.36016325,0.1114169,0.99377375,0,0)"
         ry="2.7054498"
         rx="1.7277477"
         cy="79.083611"
         cx="34.184841"
         id="path2532-5-1"
         style="opacity:1;fill:#0044aa;fill-opacity:1;stroke:none;stroke-width:0.28566778;stroke-miterlimit:4;stroke-dasharray:none;stroke-opacity:1" />
      <ellipse
         transform="matrix(0.93610671,0.35171612,-0.46323399,0.88623601,0,0)"
         ry="2.7651048"
         rx="1.6057599"
         cy="48.467377"
         cx="72.055458"
         id="path2532-5-5"
         style="opacity:1;fill:#0044aa;fill-opacity:1;stroke:none;stroke-width:0.27841806;stroke-miterlimit:4;stroke-dasharray:none;stroke-opacity:1" />
      <path
         sodipodi:nodetypes="scscsass"
         inkscape:connector-curvature="0"
         id="path2573"
         d="m 36.067448,77.708196 c 0.174195,-3.094492 0.431537,-3.978514 1.089783,-5.540727 0.929422,-2.643802 2.202344,-3.012666 3.311575,-2.523126 4.784029,2.111351 5.828608,3.50984 6.123932,5.72156 -0.280014,2.606744 -1.918203,1.519774 -3.390489,0.87025 -1.1018,-0.486078 -1.171184,-0.63754 -1.757045,-0.478649 -0.527214,0.142986 -0.416435,0.02941 -1.146861,1.170602 -2.74457,4.288021 -4.304047,2.079583 -4.230895,0.78009 z"
         style="fill:#0044aa;stroke:#0044aa;stroke-width:0.17380594px;stroke-linecap:butt;stroke-linejoin:miter;stroke-opacity:1" />
      <ellipse
         transform="matrix(0.89366725,-0.44873026,0.28564748,0.95833476,0,0)"
         ry="1.9215056"
         rx="1.1270392"
         cy="83.327766"
         cx="29.498396"
         id="path2532-4"
         style="opacity:1;fill:#0044aa;fill-opacity:1;stroke:none;stroke-width:0.1944427;stroke-miterlimit:4;stroke-dasharray:none;stroke-opacity:1" />
      <ellipse
         transform="matrix(0.93814688,0.34623754,-0.32797669,0.94468582,0,0)"
         ry="2.0176427"
         rx="1.2920545"
         cy="42.64867"
         cx="71.732239"
         id="path2532-5-2"
         style="opacity:1;fill:#0044aa;fill-opacity:1;stroke:none;stroke-width:0.21333584;stroke-miterlimit:4;stroke-dasharray:none;stroke-opacity:1" />
      <ellipse
         transform="matrix(0.94247704,0.33427088,-0.56268126,0.82667394,0,0)"
         ry="1.9228607"
         rx="1.2279725"
         cy="45.618855"
         cx="87.098312"
         id="path2532-5-1-8"
         style="opacity:1;fill:#0044aa;fill-opacity:1;stroke:none;stroke-width:0.20303437;stroke-miterlimit:4;stroke-dasharray:none;stroke-opacity:1" />
      <ellipse
         transform="matrix(0.48128339,0.87656506,-0.92870874,0.37081003,0,0)"
         ry="1.9652596"
         rx="1.1412714"
         cy="-17.152843"
         cx="87.003662"
         id="path2532-5-5-6"
         style="opacity:1;fill:#0044aa;fill-opacity:1;stroke:none;stroke-width:0.19788174;stroke-miterlimit:4;stroke-dasharray:none;stroke-opacity:1" />
      <path
         sodipodi:nodetypes="scscsass"
         inkscape:connector-curvature="0"
         id="path2573-0"
         d="m 48.629345,70.845163 c 1.52636,-1.588322 2.074357,-1.945982 3.152503,-2.483836 1.725058,-0.995664 2.582328,-0.60538 2.953967,0.172096 1.602852,3.353199 1.518878,4.590974 0.654372,5.920526 -1.357658,1.276283 -1.738036,-0.06826 -2.231427,-1.100073 -0.369234,-0.772169 -0.336545,-0.885975 -0.726067,-1.071469 -0.35053,-0.166926 -0.238211,-0.176902 -1.160398,0.100471 -3.465117,1.042228 -3.283926,-0.870719 -2.64295,-1.537715 z"
         style="fill:#0044aa;stroke:#0044aa;stroke-width:0.12353015px;stroke-linecap:butt;stroke-linejoin:miter;stroke-opacity:1" />
    </g>
    <g
       id="g2924"
       inkscape:export-xdpi="96"
       inkscape:export-ydpi="96">
      <ellipse
         ry="25.925144"
         rx="25.657875"
         cy="89.331573"
         cx="33.408691"
         id="path815-7-4-1-2"
         style="opacity:1;fill:#f9f9f9;fill-opacity:1;stroke:#808080;stroke-width:0.51599997;stroke-miterlimit:4;stroke-dasharray:none;stroke-opacity:1" />
      <path
         inkscape:connector-curvature="0"
         id="path815-9-6-2-2-9-2-5"
         d="m 42.304735,70.421232 -1.289844,3.89072 a 15.76908,15.933341 3.73594 0 1 8.130252,14.97376 15.76908,15.933341 3.73594 0 1 -16.773653,14.872478 15.76908,15.933341 3.73594 0 1 -14.697812,-16.927128 15.76908,15.933341 3.73594 0 1 0.381889,-2.50114 h -4.098456 a 19.777944,19.983964 3.73594 0 0 -0.283705,2.24017 19.777944,19.983964 3.73594 0 0 18.434019,21.230228 19.777944,19.983964 3.73594 0 0 21.03799,-18.653118 19.777944,19.983964 3.73594 0 0 -10.84068,-19.12597 z"
         style="opacity:1;fill:#0044aa;fill-opacity:1;stroke:none;stroke-width:0.39774996;stroke-miterlimit:4;stroke-dasharray:none;stroke-opacity:1" />
      <text
         transform="rotate(14.26573,582.67391,-24.107744)"
         y="-524.94263"
         x="-14.572599"
         id="text995-2-7-1-4"
         style="font-style:normal;font-variant:normal;font-weight:500;font-stretch:normal;font-size:10.58333302px;line-height:1.25;font-family:'Always In My Heart';-inkscape-font-specification:'Always In My Heart, Medium';font-variant-ligatures:normal;font-variant-caps:normal;font-variant-numeric:normal;font-feature-settings:normal;text-align:start;letter-spacing:0px;word-spacing:0px;writing-mode:lr-tb;text-anchor:start;fill:#0044aa;fill-opacity:1;stroke:none;stroke-width:0.26458332"
         xml:space="preserve"><textPath
           id="textPath1016-4-9-7-6"
           xlink:href="#path815-9-6-7-6-2-6">Holidays<tspan
   id="tspan993-8-0-1-8"
   style="font-style:normal;font-variant:normal;font-weight:500;font-stretch:normal;font-size:10.58333302px;font-family:'Always In My Heart';-inkscape-font-specification:'Always In My Heart, Medium';font-variant-ligatures:normal;font-variant-caps:normal;font-variant-numeric:normal;font-feature-settings:normal;text-align:start;writing-mode:lr-tb;text-anchor:start;fill:#0044aa;stroke-width:0.26458332" /></textPath></text>
      <g
         transform="translate(-4.1577381,-53.294643)"
         id="g2877">
        <g
           id="g2819"
           transform="translate(-0.7657283,-24.646128)">
          <rect
             ry="3.8909626"
             rx="3.946419"
             y="163.3391"
             x="30.489151"
             height="11.717261"
             width="15.686011"
             id="rect2788"
             style="opacity:1;fill:#0044aa;fill-opacity:1;stroke:#0044aa;stroke-width:0.51599997;stroke-miterlimit:4;stroke-dasharray:none;stroke-opacity:1" />
          <path
             inkscape:connector-curvature="0"
             id="path2790"
             d="m 38.356004,159.48833 a 4.3939732,4.9609374 0 0 0 -4.318601,4.06332 h 1.233001 a 3.2711443,3.6932272 0 0 1 3.0856,-2.48564 3.2711443,3.6932272 0 0 1 3.085081,2.48564 h 1.234033 a 4.3939732,4.9609374 0 0 0 -4.319114,-4.06332 z"
             style="opacity:1;fill:#0044aa;fill-opacity:1;stroke:#0044aa;stroke-width:0.51599997;stroke-miterlimit:4;stroke-dasharray:none;stroke-opacity:1" />
        </g>
        <path
           style="opacity:1;fill:#f9f9f9;fill-opacity:1;stroke:none;stroke-width:0.51599997;stroke-miterlimit:4;stroke-dasharray:none;stroke-opacity:1"
           d="m 43.369691,140.31384 c -0.153109,0.0143 -0.308589,0.0222 -0.466122,0.0222 h -0.08888 a 5.3616036,5.33079 0 0 1 -5.242576,4.27158 5.3616036,5.33079 0 0 1 -5.24464,-4.27158 h -0.564308 a 5.8131122,5.7797035 0 0 0 5.804297,5.54591 5.8131122,5.7797035 0 0 0 5.80223,-5.56813 z"
           id="path2850"
           inkscape:connector-curvature="0" />
      </g>
    </g>
  </g>
</svg>
