<?xml version="1.0" encoding="UTF-8" standalone="no"?>
<!-- Created with Inkscape (http://www.inkscape.org/) -->

<svg
   xmlns:dc="http://purl.org/dc/elements/1.1/"
   xmlns:cc="http://creativecommons.org/ns#"
   xmlns:rdf="http://www.w3.org/1999/02/22-rdf-syntax-ns#"
   xmlns:svg="http://www.w3.org/2000/svg"
   xmlns="http://www.w3.org/2000/svg"
   xmlns:sodipodi="http://sodipodi.sourceforge.net/DTD/sodipodi-0.dtd"
   xmlns:inkscape="http://www.inkscape.org/namespaces/inkscape"
   width="51.831749mm"
   height="52.366287mm"
   viewBox="0 0 51.831749 52.366287"
   version="1.1"
   id="svg898"
   inkscape:version="0.92.2 (5c3e80d, 2017-08-06)"
   sodipodi:docname="blank.svg"
   inkscape:export-filename="C:\Projekte\VocabularyApp-Jens\VocabularyApp\client\src\assets\imgs\level\topic.png"
   inkscape:export-xdpi="96"
   inkscape:export-ydpi="96">
  <defs
     id="defs892">
    <ellipse
       style="opacity:1;fill:#0044aa;fill-opacity:1;stroke:none;stroke-width:0.39774999;stroke-miterlimit:4;stroke-dasharray:none;stroke-opacity:1"
       id="path815-9-6-7-6-2-0-6-6"
       cx="-95.657616"
       cy="-217.99852"
       rx="19.777945"
       ry="19.983965"
       transform="rotate(-176.26406)" />
  </defs>
  <sodipodi:namedview
     id="base"
     pagecolor="#ffffff"
     bordercolor="#666666"
     borderopacity="1.0"
     inkscape:pageopacity="0.0"
     inkscape:pageshadow="2"
     inkscape:zoom="2.8"
     inkscape:cx="-18.058023"
     inkscape:cy="90.640889"
     inkscape:document-units="mm"
     inkscape:current-layer="g828"
     showgrid="false"
     inkscape:window-width="1920"
     inkscape:window-height="1017"
     inkscape:window-x="1912"
     inkscape:window-y="-8"
     inkscape:window-maximized="1"
     fit-margin-top="0"
     fit-margin-left="0"
     fit-margin-right="0"
     fit-margin-bottom="0"
     inkscape:snap-global="false" />
  <metadata
     id="metadata895">
    <rdf:RDF>
      <cc:Work
         rdf:about="">
        <dc:format>image/svg+xml</dc:format>
        <dc:type
           rdf:resource="http://purl.org/dc/dcmitype/StillImage" />
        <dc:title></dc:title>
      </cc:Work>
    </rdf:RDF>
  </metadata>
  <g
     inkscape:label="Layer 1"
     inkscape:groupmode="layer"
     id="layer1"
     transform="translate(-17.173414,-19.084718)">
    <g
       id="g1904"
       transform="translate(-110.426,-170.72492)"
       inkscape:export-xdpi="96"
       inkscape:export-ydpi="96">
      <g
         id="g828">
        <ellipse
           style="opacity:1;fill:#ffffff;fill-opacity:1;stroke:#0044aa;stroke-width:0.51599997;stroke-miterlimit:4;stroke-dasharray:none;stroke-opacity:1"
           id="path815-7-4-1-8-7-4"
           cx="153.51529"
           cy="215.99278"
           rx="25.657875"
           ry="25.925144"
           inkscape:export-xdpi="96"
           inkscape:export-ydpi="96" />
        <path
           style="opacity:1;fill:#0044aa;fill-opacity:1;stroke:none;stroke-width:0.39774996;stroke-miterlimit:4;stroke-dasharray:none;stroke-opacity:1"
           d="m 153.41789,196.01 a 19.777944,19.983964 3.73594 0 0 -1.56012,0.0884 v 4.05195 a 15.76908,15.933341 3.73594 0 1 1.58028,-0.0904 15.76908,15.933341 3.73594 0 1 1.11569,0.0331 15.76908,15.933341 3.73594 0 1 14.69729,16.92713 15.76908,15.933341 3.73594 0 1 -16.77365,14.87198 15.76908,15.933341 3.73594 0 1 -14.69782,-16.92714 15.76908,15.933341 3.73594 0 1 0.38189,-2.50114 h -4.09846 a 19.777944,19.983964 3.73594 0 0 -0.28371,2.24017 19.777944,19.983964 3.73594 0 0 18.43404,21.23023 19.777944,19.983964 3.73594 0 0 21.03798,-18.65312 19.777944,19.983964 3.73594 0 0 -18.43402,-21.23024 19.777944,19.983964 3.73594 0 0 -1.39939,-0.0408 z"
           id="path815-9-6-2-2-9-2-32-0-8"
           inkscape:connector-curvature="0" />
        <path
           style="opacity:1;fill:#0044aa;fill-opacity:1;stroke:none;stroke-width:1.50330698;stroke-miterlimit:4;stroke-dasharray:none;stroke-opacity:1"
           d="M 100.08203 23.433594 A 74.751284 75.529943 84.400263 0 0 91.552734 23.75 A 74.751284 75.529943 84.400263 0 0 23.677734 105.51562 A 74.751284 75.529943 84.400263 0 0 106.14258 172.53906 A 74.751284 75.529943 84.400263 0 0 148.47266 154.32031 L 145.42578 135.75781 A 59.599672 60.220501 84.400263 0 1 104.66406 157.46094 A 59.599672 60.220501 84.400263 0 1 38.914062 104.02148 A 59.599672 60.220501 84.400263 0 1 93.033203 38.828125 A 59.599672 60.220501 84.400263 0 1 102.59375 38.71875 L 100.08203 23.433594 z "
           transform="matrix(0.26458333,0,0,0.26458333,127.59941,189.80964)"
           id="path820" />
      </g>
    </g>
  </g>
</svg>
