<?xml version="1.0" encoding="UTF-8" standalone="no"?>
<!-- Created with Inkscape (http://www.inkscape.org/) -->

<svg
   xmlns:dc="http://purl.org/dc/elements/1.1/"
   xmlns:cc="http://creativecommons.org/ns#"
   xmlns:rdf="http://www.w3.org/1999/02/22-rdf-syntax-ns#"
   xmlns:svg="http://www.w3.org/2000/svg"
   xmlns="http://www.w3.org/2000/svg"
   xmlns:sodipodi="http://sodipodi.sourceforge.net/DTD/sodipodi-0.dtd"
   xmlns:inkscape="http://www.inkscape.org/namespaces/inkscape"
   width="405.19mm"
   height="405.19mm"
   viewBox="0 0 405.19 405.19"
   version="1.1"
   id="svg902"
   inkscape:version="0.92.3 (2405546, 2018-03-11)"
   sodipodi:docname="progress3.svg">
  <defs
     id="defs896" />
  <sodipodi:namedview
     id="base"
     pagecolor="#ffffff"
     bordercolor="#666666"
     borderopacity="1.0"
     inkscape:pageopacity="0.0"
     inkscape:pageshadow="2"
     inkscape:zoom="0.35"
     inkscape:cx="-1191.4286"
     inkscape:cy="560"
     inkscape:document-units="mm"
     inkscape:current-layer="g819"
     showgrid="false"
     inkscape:window-width="1920"
     inkscape:window-height="1003"
     inkscape:window-x="-9"
     inkscape:window-y="-9"
     inkscape:window-maximized="1" />
  <metadata
     id="metadata899">
    <rdf:RDF>
      <cc:Work
         rdf:about="">
        <dc:format>image/svg+xml</dc:format>
        <dc:type
           rdf:resource="http://purl.org/dc/dcmitype/StillImage" />
        <dc:title />
      </cc:Work>
    </rdf:RDF>
  </metadata>
  <g
     inkscape:label="Ebene 1"
     inkscape:groupmode="layer"
     id="layer1"
     transform="translate(0,108.19)">
    <g
       id="g819">
      <circle
         style="opacity:1;fill:#f9f9f9;fill-opacity:1;stroke:none;stroke-width:0.5;stroke-miterlimit:4;stroke-dasharray:none"
         id="circle4566"
         cx="202.595"
         cy="94.404999"
         r="202.59525" />
      <path
         inkscape:connector-curvature="0"
         id="path830"
         d="M 202.59526,-108.19007 V 94.404803 L 27.361,195.5764 A 202.59524,202.59524 0 0 0 202.59526,297.00016 202.59524,202.59524 0 0 0 405.19014,94.404803 202.59524,202.59524 0 0 0 202.59526,-108.19007 Z m 0,0 a 202.59524,202.59524 0 0 0 -17.27338,0.86455 202.59524,202.59524 0 0 1 17.27338,-0.86455 z M 27.361,195.5764 A 202.59524,202.59524 0 0 1 16.38027,173.65216 202.59524,202.59524 0 0 0 27.361,195.5764 Z m 147.92947,-301.68441 a 202.59524,202.59524 0 0 0 -10.02213,1.51463 202.59524,202.59524 0 0 1 10.02213,-1.51463 z m -19.88148,3.72742 a 202.59524,202.59524 0 0 0 -9.82109,2.507846 202.59524,202.59524 0 0 1 9.82109,-2.507846 z m -19.40914,5.693696 a 202.59524,202.59524 0 0 0 -9.525,3.47678 202.59524,202.59524 0 0 1 9.525,-3.47678 z m -18.74253,7.60212 a 202.59524,202.59524 0 0 0 -9.13019,4.410071 202.59524,202.59524 0 0 1 9.13019,-4.410071 z m -17.89245,9.436621 a 202.59524,202.59524 0 0 0 -8.64703,5.30149 202.59524,202.59524 0 0 1 8.64703,-5.30149 z m -16.85581,11.17193 a 202.59524,202.59524 0 0 0 -8.07858,6.141239 202.59524,202.59524 0 0 1 8.07858,-6.141239 z m -15.66934,12.809559 a 202.59524,202.59524 0 0 0 -7.41246,6.905022 202.59524,202.59524 0 0 1 7.41246,-6.905022 z m -14.30766,14.306632 a 202.59524,202.59524 0 0 0 -6.68382,7.60884 202.59524,202.59524 0 0 1 6.68382,-7.60884 z m -12.79922,15.653308 a 202.59524,202.59524 0 0 0 -5.8973,8.247031 202.59524,202.59524 0 0 1 5.8973,-8.247031 z M 28.55523,-8.847823 a 202.59524,202.59524 0 0 0 -5.04259,8.79121 202.59524,202.59524 0 0 1 5.04259,-8.79121 z M 19.11188,9.052906 a 202.59524,202.59524 0 0 0 -4.13412,9.238703 202.59524,202.59524 0 0 1 4.13412,-9.238703 z m -7.60315,18.741501 a 202.59524,202.59524 0 0 0 -3.1931,9.610252 202.59524,202.59524 0 0 1 3.1931,-9.610252 z M 5.81244,47.208203 a 202.59524,202.59524 0 0 0 -2.21642,9.87227 202.59524,202.59524 0 0 1 2.21642,-9.87227 z m -3.72846,19.87836 a 202.59524,202.59524 0 0 0 -1.2206,10.05264 202.59524,202.59524 0 0 1 1.2206,-10.05264 z M -1.1e-4,94.404803 A 202.59524,202.59524 0 0 0 0.93987,112.30136 202.59524,202.59524 0 0 1 -1.1e-4,94.404803 Z m 1.82467,25.181387 a 202.59524,202.59524 0 0 0 2.07121,13.47774 202.59524,202.59524 0 0 1 -2.07121,-13.47774 z m 3.175,18.39423 a 202.59524,202.59524 0 0 0 3.976,15.41198 202.59524,202.59524 0 0 1 -3.976,-15.41198 z m 4.85965,18.07075 a 202.59524,202.59524 0 0 0 6.2601,17.01808 202.59524,202.59524 0 0 1 -6.2601,-17.01808 z"
         style="opacity:1;fill:#0044aa;fill-opacity:1;stroke:none;stroke-width:0.5;stroke-miterlimit:4;stroke-dasharray:none" />
    </g>
  </g>
</svg>
