<?xml version="1.0" encoding="UTF-8" standalone="no"?>
<!-- Created with Inkscape (http://www.inkscape.org/) -->

<svg
   xmlns:dc="http://purl.org/dc/elements/1.1/"
   xmlns:cc="http://creativecommons.org/ns#"
   xmlns:rdf="http://www.w3.org/1999/02/22-rdf-syntax-ns#"
   xmlns:svg="http://www.w3.org/2000/svg"
   xmlns="http://www.w3.org/2000/svg"
   xmlns:sodipodi="http://sodipodi.sourceforge.net/DTD/sodipodi-0.dtd"
   xmlns:inkscape="http://www.inkscape.org/namespaces/inkscape"
   width="405.19mm"
   height="405.19mm"
   viewBox="0 0 405.19 405.19"
   version="1.1"
   id="svg902"
   inkscape:version="0.92.3 (2405546, 2018-03-11)"
   sodipodi:docname="progress4.svg">
  <defs
     id="defs896" />
  <sodipodi:namedview
     id="base"
     pagecolor="#ffffff"
     bordercolor="#666666"
     borderopacity="1.0"
     inkscape:pageopacity="0.0"
     inkscape:pageshadow="2"
     inkscape:zoom="0.35"
     inkscape:cx="221.42499"
     inkscape:cy="560"
     inkscape:document-units="mm"
     inkscape:current-layer="g819"
     showgrid="false"
     inkscape:window-width="1920"
     inkscape:window-height="1003"
     inkscape:window-x="-9"
     inkscape:window-y="-9"
     inkscape:window-maximized="1" />
  <metadata
     id="metadata899">
    <rdf:RDF>
      <cc:Work
         rdf:about="">
        <dc:format>image/svg+xml</dc:format>
        <dc:type
           rdf:resource="http://purl.org/dc/dcmitype/StillImage" />
        <dc:title />
      </cc:Work>
    </rdf:RDF>
  </metadata>
  <g
     inkscape:label="Ebene 1"
     inkscape:groupmode="layer"
     id="layer1"
     transform="translate(0,108.19)">
    <g
       id="g819">
      <circle
         r="202.59525"
         cy="94.404999"
         cx="202.595"
         id="circle4568"
         style="opacity:1;fill:#f9f9f9;fill-opacity:1;stroke:none;stroke-width:0.5;stroke-miterlimit:4;stroke-dasharray:none" />
      <path
         inkscape:connector-curvature="0"
         id="circle4552"
         d="M 202.59475,-108.19012 V 94.404749 L 27.30054,-6.801471 A 202.59524,202.59524 0 0 0 -1.2e-4,94.405268 202.59524,202.59524 0 0 0 202.59475,297.00014 202.59524,202.59524 0 0 0 405.19013,94.405268 202.59524,202.59524 0 0 0 202.59475,-108.19012 Z m 0,0 a 202.59524,202.59524 0 0 0 -17.52449,0.89504 202.59524,202.59524 0 0 1 17.52449,-0.89504 z m -26.38237,1.97043 a 202.59524,202.59524 0 0 0 -11.48715,1.74821 202.59524,202.59524 0 0 1 11.48715,-1.74821 z m -19.22878,3.48609 a 202.59524,202.59524 0 0 0 -12.20287,3.129516 202.59524,202.59524 0 0 1 12.20287,-3.129516 z m -18.8278,5.330936 a 202.59524,202.59524 0 0 0 -12.71498,4.65605 202.59524,202.59524 0 0 1 12.71498,-4.65605 z m -18.23971,7.12825 a 202.59524,202.59524 0 0 0 -13.02454,6.30866 202.59524,202.59524 0 0 1 13.02454,-6.30866 z m -17.47801,8.86302 a 202.59524,202.59524 0 0 0 -13.09015,8.044471 202.59524,202.59524 0 0 1 13.09015,-8.044471 z m -16.59226,10.549231 a 202.59524,202.59524 0 0 0 -12.8633,9.799399 202.59524,202.59524 0 0 1 12.8633,-9.799399 z m -15.5236,12.13621 a 202.59524,202.59524 0 0 0 -12.37084,11.54916 202.59524,202.59524 0 0 1 12.37084,-11.54916 z m -14.29473,13.614151 a 202.59524,202.59524 0 0 0 -11.61894,13.253979 202.59524,202.59524 0 0 1 11.61894,-13.253979 z m -12.92894,14.976869 a 202.59524,202.59524 0 0 0 -10.60244,14.85904 202.59524,202.59524 0 0 1 10.60244,-14.85904 z"
         style="opacity:1;fill:#0044aa;fill-opacity:1;stroke:none;stroke-width:0.5;stroke-miterlimit:4;stroke-dasharray:none" />
    </g>
  </g>
</svg>
